<?xml version="1.0" encoding="utf-8"?>
<!-- Generator: Adobe Illustrator 25.3.1, SVG Export Plug-In . SVG Version: 6.00 Build 0)  -->
<svg version="1.1" id="Calque_2_-_copie_2" xmlns="http://www.w3.org/2000/svg" xmlns:xlink="http://www.w3.org/1999/xlink" x="0px"
	 y="0px" viewBox="0 0 428 138" style="enable-background:new 0 0 428 138;" xml:space="preserve">
<path style="fill:#EDBAA5;" d="M83.32,64.26V46.57c0-13.89-11.36-25.26-25.26-25.26h-18.5c-12.38,0-22.5,10.12-22.5,22.5v20.45
	c-5.5,0-9.96,4.46-9.96,9.96c0,5.5,4.46,9.96,9.96,9.96v27.19c0,12.38,10.12,22.5,22.5,22.5h21.26c12.38,0,22.5-10.12,22.5-22.5
	V84.18c5.5,0,9.96-4.46,9.96-9.96C93.27,68.72,88.82,64.26,83.32,64.26z"/>
<path style="fill:#BC856C;" d="M50.19,103.42c4.88,0,12.45,1.15,17.04,1.15c4.6,0,9-4.5,9-10.63c0-6.13,0-22.79,0-27.57
	s-4.69-10.91-11.49-10.91s-23.46,3.54-33.13,3.54c0-2.97,0-12.64,0-12.64h51.7v65.11H50.19V103.42z"/>
<path style="opacity:0.3;fill:#FFFFFF;" d="M36.5,107.92c-7.47,0-12.45-6.13-12.45-13.12c0-6.99,0-48.45,0-48.45h-6.99v70.66H36.5
	V107.92z"/>
<rect x="38.33" y="40.13" transform="matrix(0.7528 0.6583 -0.6583 0.7528 58.0537 -8.3366)" style="opacity:0.3;fill:#FFFFFF;" width="3.59" height="65.97"/>
<rect x="43.96" y="41.2" transform="matrix(0.7528 0.6583 -0.6583 0.7528 63.217 -11.9352)" style="opacity:0.3;fill:#FFFFFF;" width="7.07" height="73.98"/>
<path style="fill:#DD7B2C;" d="M17.06,94.8v16.56c0,12.38,10.12,22.5,22.5,22.5h21.26c12.38,0,22.5-10.12,22.5-22.5V94.8l0,0
	c0,10.91-7.28,16.09-15.51,16.09c-9.38,0-8.11-4.15-17.62-4.15s-8.23,4.15-17.62,4.15C24.34,110.89,17.06,105.72,17.06,94.8z"/>
<path style="fill:#C55927;" d="M39.56,133.87h21.26c12.38,0,22.5-10.13,22.5-22.5V92.8c0,18.77-9.96,35.21-23.4,34.21H40.46
	c-12.11,1-23.4-14.68-23.4-34.21v18.56C17.06,123.74,27.19,133.87,39.56,133.87z"/>
<path style="fill:#AE481D;" d="M16.56,92.8h1c0,11.68,4.2,22.8,10.96,29.03c3.7,3.4,7.81,5.03,11.9,4.69l19.49,0
	c4.43,0.32,8.68-1.29,12.33-4.68c6.52-6.06,10.58-17.18,10.58-29.03h1l-1,10.19c-1.62,8.08-5.11,15.14-9.9,19.58
	c-3.86,3.58-8.37,5.28-13.04,4.94l-19.41,0c-4.33,0.36-8.71-1.35-12.62-4.95c-4.99-4.59-8.63-11.76-10.28-19.85L16.56,92.8z"/>
<path style="fill:#DD7B2C;" d="M83.32,69.19c0-11.72-6.61-19.57-17.43-19.57c-16.47,0-20.3,5.94-34.37,5.94
	c-15.67,0-27.19-10.47-27.19-25.85c0-14.23,10.82-25.56,23.36-25.56c0,9.41,6.16,17.18,22.5,17.18h7.87
	c13.89,0,25.26,11.36,25.26,25.26V69.19L83.32,69.19z"/>
<path style="fill:#C55927;" d="M57.18,40.9c-11.49,0-9.19,2.87-23.17,2.87c-11.11,0-19.53-8.81-19.53-17.52
	c0-9.1,4.12-15.21,13.21-20.29c-12.54,0-23.36,9.5-23.36,23.73c0,15.38,11.52,25.85,27.19,25.85c14.07,0,17.9-5.94,34.37-5.94
	c10.82,0,17.43,4.94,17.43,16.66C83.32,48.23,73.36,40.9,57.18,40.9z"/>
<path style="fill:#AE481D;" d="M27.69,5.46h1.92L27.93,6.4c-9.08,5.07-12.96,11-12.96,19.85c0,8.05,7.82,17.02,19.03,17.02
	c7.26,0,10.06-0.77,12.77-1.52c2.51-0.69,4.87-1.35,10.4-1.35c17.68,0,26.64,8.7,26.64,25.87h-1l-1.41-10.22
	C78.33,46.32,70.22,41.4,57.18,41.4c-5.4,0-7.7,0.64-10.14,1.31c-2.77,0.77-5.63,1.56-13.03,1.56c-11.81,0-20.03-9.5-20.03-18.02
	c0-8.55,3.64-14.7,11.74-19.71L27.69,5.46z"/>
<path style="fill:#532B2B;" d="M96.77,74.22c0-6.21-4.23-11.43-9.96-12.98v-0.48V46.57c0-15.86-12.9-28.76-28.76-28.76h-7.87
	c-8.67,0-19-2.37-19-13.68v-3.5h-3.5C12.88,0.63,0.83,13.67,0.83,29.7c0,10.44,4.87,19.11,12.73,24.26v7.28
	C7.83,62.78,3.6,68.01,3.6,74.22c0,6.21,4.23,11.43,9.96,12.98v24.17c0,14.34,11.66,26,26,26h21.26c14.34,0,26-11.66,26-26V87.2
	C92.54,85.65,96.77,80.43,96.77,74.22z M7.83,29.7c0-10.75,7.35-20.01,16.66-21.76c1.75,10.65,11.08,16.88,25.7,16.88h7.87
	c12,0,21.76,9.76,21.76,21.76v4.67c-3.57-3.27-8.34-5.12-13.93-5.12c-9.09,0-14.72,1.75-19.69,3.3c-4.54,1.41-8.46,2.63-14.69,2.63
	C17.57,52.05,7.83,42.86,7.83,29.7z M10.6,74.22c0-2.27,1.18-4.27,2.96-5.42v10.84C11.78,78.48,10.6,76.49,10.6,74.22z
	 M60.82,130.37H39.56c-10.48,0-19-8.52-19-19v-0.86c3.43,2.62,7.72,3.88,12.01,3.88c5.51,0,8.07-1.3,10.32-2.44
	c1.88-0.95,3.36-1.71,7.29-1.71c3.93,0,5.42,0.75,7.29,1.71c2.25,1.15,4.81,2.44,10.32,2.44c4.29,0,8.58-1.26,12.01-3.88v0.86
	C79.82,121.84,71.29,130.37,60.82,130.37z M67.8,107.39c-3.84,0-5.3-0.74-7.15-1.68c-2.27-1.16-4.85-2.46-10.46-2.46
	c-5.61,0-8.19,1.31-10.46,2.46c-1.85,0.94-3.32,1.68-7.15,1.68c-2.82,0-12.01-0.91-12.01-12.58V57.33
	c3.36,1.12,7.04,1.72,10.96,1.72c7.29,0,12.11-1.5,16.77-2.95c4.93-1.53,9.58-2.98,17.6-2.98c8.72,0,13.93,6.01,13.93,16.07V94.8
	C79.82,106.48,70.62,107.39,67.8,107.39z M86.82,79.64V69.19V68.8c1.78,1.15,2.96,3.15,2.96,5.42S88.59,78.48,86.82,79.64z"/>
<circle style="fill:#532B2B;" cx="50.19" cy="119.59" r="5.23"/>
<path style="fill:#532B2B;" d="M126.86,70.68l-1.98,22.1h-6.07l2.96-31.32h8.46l7.99,22.48L146,61.46h8.46l2.87,31.32h-6.11
	l-2.16-22.01l-8.28,22.33l-5.6,0.52L126.86,70.68z"/>
<path style="fill:#532B2B;" d="M167.32,91.88c-1.87-1.07-3.31-2.56-4.35-4.49s-1.55-4.16-1.55-6.7s0.51-4.77,1.53-6.7
	c1.02-1.93,2.46-3.42,4.33-4.49c1.86-1.06,4.02-1.6,6.47-1.6s4.6,0.53,6.47,1.58c1.86,1.05,3.31,2.53,4.33,4.44
	c1.02,1.91,1.53,4.12,1.53,6.63c0,2.54-0.51,4.79-1.53,6.75c-1.02,1.96-2.46,3.48-4.33,4.56c-1.87,1.08-4,1.62-6.42,1.62
	C171.34,93.48,169.18,92.95,167.32,91.88z M177.81,85.79c1.02-1.3,1.53-3.02,1.53-5.15c0-2.13-0.51-3.83-1.53-5.1
	c-1.02-1.27-2.37-1.9-4.07-1.9s-3.05,0.63-4.07,1.9c-1.02,1.27-1.53,2.97-1.53,5.1c0,2.13,0.51,3.85,1.53,5.15
	c1.02,1.3,2.37,1.95,4.07,1.95S176.79,87.1,177.81,85.79z"/>
<path style="fill:#532B2B;" d="M191,92.35v-33.9h6.54v12.46c1.85-2.01,4.12-3.01,6.82-3.01c2.76,0,4.92,1.04,6.49,3.13
	c1.57,2.09,2.35,4.99,2.35,8.72c0,4.45-1.15,7.85-3.43,10.2c-2.29,2.35-5.58,3.53-9.87,3.53C197.37,93.48,194.41,93.11,191,92.35z
	 M205.03,85.77c1.02-1.29,1.53-3.17,1.53-5.64c0-2.04-0.34-3.62-1.01-4.75c-0.67-1.13-1.62-1.69-2.84-1.69c-1,0-1.94,0.35-2.82,1.06
	c-0.88,0.71-1.66,1.73-2.35,3.08v9.45c0.97,0.28,1.99,0.42,3.06,0.42C202.53,87.7,204.01,87.06,205.03,85.77z"/>
<path style="fill:#532B2B;" d="M217.05,87.09h4.51V74.25h-4.51v-5.69h11.14v18.53h4.04v5.69h-15.19V87.09z M220.71,58.45h7.57v6.11
	h-7.57V58.45z"/>
<path style="fill:#532B2B;" d="M235.52,87.09h4.28V64.09h-4.04v-5.64h10.67v28.64h4.28v5.69h-15.19V87.09z"/>
<path style="fill:#532B2B;" d="M256.71,90.1c-2.24-2.26-3.36-5.39-3.36-9.4c0-2.6,0.49-4.87,1.46-6.79
	c0.97-1.93,2.34-3.41,4.11-4.44c1.77-1.03,3.85-1.55,6.23-1.55c3.51,0,6.21,1.13,8.09,3.39c1.88,2.26,2.82,5.52,2.82,9.78
	c0,0.72-0.02,1.25-0.05,1.6h-15.99c0.31,1.66,1.03,2.92,2.16,3.79c1.13,0.86,2.65,1.29,4.56,1.29c1.16,0,2.37-0.15,3.62-0.45
	c1.25-0.3,2.35-0.7,3.29-1.2l1.08,5.31c-1.25,0.66-2.64,1.17-4.16,1.53c-1.52,0.36-3.06,0.54-4.63,0.54
	C262.03,93.48,258.95,92.35,256.71,90.1z M269.71,77.68c-0.09-1.35-0.56-2.42-1.41-3.22c-0.85-0.8-1.98-1.2-3.39-1.2
	c-1.35,0-2.45,0.39-3.31,1.18c-0.86,0.78-1.4,1.87-1.62,3.25H269.71z"/>
<path style="fill:#532B2B;" d="M297.29,91.62c-2.52-1.24-4.46-3.02-5.81-5.34c-1.35-2.32-2.02-5.08-2.02-8.28
	c0-3.35,0.71-6.32,2.14-8.89c1.43-2.57,3.43-4.56,6.02-5.97c2.59-1.41,5.57-2.12,8.96-2.12c1.94,0,3.79,0.22,5.53,0.66
	c1.74,0.44,3.28,1.07,4.63,1.88l-1.65,5.64c-1.22-0.75-2.59-1.34-4.09-1.76c-1.5-0.42-2.98-0.63-4.42-0.63
	c-2.07,0-3.9,0.45-5.48,1.34c-1.58,0.89-2.81,2.15-3.67,3.76c-0.86,1.62-1.29,3.49-1.29,5.62c0,3.13,0.95,5.6,2.85,7.41
	c1.9,1.8,4.49,2.7,7.78,2.7c1.32,0,2.54-0.09,3.67-0.28v-6.49h-3.95v-5.5h10.2v16.27c-3.23,1.22-6.69,1.83-10.39,1.83
	C302.81,93.48,299.81,92.86,297.29,91.62z"/>
<path style="fill:#532B2B;" d="M324.72,91.08c-1.47-1.57-2.21-3.71-2.21-6.44V68.56h6.63v15c0,1.29,0.31,2.28,0.94,2.99
	c0.63,0.71,1.47,1.06,2.54,1.06c1.07,0,2.09-0.34,3.08-1.03c0.99-0.69,1.81-1.61,2.47-2.77V68.56h6.63v24.22h-6.63v-3.2
	c-0.91,1.22-1.95,2.17-3.13,2.84c-1.18,0.67-2.59,1.01-4.26,1.01C328.22,93.44,326.2,92.65,324.72,91.08z"/>
<path style="fill:#532B2B;" d="M350.12,102.28l0.99-5.45c1.19,0.59,2.19,0.89,3.01,0.89c0.97,0,1.7-0.31,2.19-0.94
	c0.49-0.63,1.01-1.72,1.58-3.29l-9.45-24.83l6.87-0.56l5.78,17.35l5.36-16.88h6.54c-2.01,6.08-4.11,12.07-6.32,17.96
	c-2.21,5.89-3.93,9.94-5.15,12.13c-0.88,1.57-1.86,2.73-2.94,3.5c-1.08,0.77-2.39,1.15-3.93,1.15
	C353.19,103.31,351.68,102.96,350.12,102.28z"/>
<path style="fill:#878787;" d="M373.15,91.56c0-0.4,0.12-0.74,0.36-1.01c0.24-0.27,0.6-0.4,1.08-0.4s0.84,0.13,1.09,0.4
	s0.37,0.6,0.37,1.01c0,0.39-0.12,0.71-0.37,0.97s-0.61,0.39-1.09,0.39s-0.84-0.13-1.08-0.39C373.27,92.26,373.15,91.94,373.15,91.56
	z"/>
<path style="fill:#878787;" d="M385.35,91.13c0.83,0,1.56-0.25,2.18-0.75c0.62-0.5,0.96-1.13,1.03-1.89h2.2
	c-0.04,0.78-0.31,1.52-0.81,2.23c-0.5,0.71-1.16,1.27-1.98,1.69c-0.83,0.42-1.7,0.63-2.62,0.63c-1.85,0-3.33-0.62-4.42-1.86
	c-1.1-1.24-1.64-2.93-1.64-5.08V85.7c0-1.33,0.24-2.5,0.73-3.54s1.19-1.83,2.1-2.41c0.91-0.57,1.99-0.86,3.23-0.86
	c1.53,0,2.8,0.46,3.81,1.37c1.01,0.92,1.55,2.1,1.62,3.56h-2.2c-0.07-0.88-0.4-1.6-1-2.17c-0.6-0.57-1.34-0.85-2.22-0.85
	c-1.18,0-2.1,0.43-2.75,1.28s-0.98,2.08-0.98,3.69v0.44c0,1.57,0.32,2.78,0.97,3.62C383.23,90.7,384.15,91.13,385.35,91.13z"/>
<path style="fill:#878787;" d="M392.77,85.84c0-1.33,0.26-2.53,0.79-3.6c0.52-1.07,1.25-1.89,2.19-2.47c0.94-0.58,2-0.87,3.2-0.87
	c1.85,0,3.36,0.64,4.5,1.93s1.72,2.99,1.72,5.12v0.16c0,1.33-0.25,2.52-0.76,3.57c-0.51,1.05-1.23,1.87-2.18,2.46
	c-0.94,0.59-2.03,0.88-3.25,0.88c-1.85,0-3.34-0.64-4.49-1.93c-1.15-1.28-1.72-2.98-1.72-5.1V85.84z M395.11,86.12
	c0,1.51,0.35,2.72,1.05,3.64c0.7,0.92,1.64,1.37,2.81,1.37c1.18,0,2.12-0.46,2.82-1.39c0.7-0.93,1.04-2.23,1.04-3.9
	c0-1.49-0.35-2.71-1.06-3.63c-0.71-0.93-1.65-1.39-2.83-1.39c-1.15,0-2.08,0.46-2.78,1.37C395.46,83.1,395.11,84.41,395.11,86.12z"
	/>
<path style="fill:#878787;" d="M410.28,79.16l0.06,1.51c1-1.18,2.35-1.76,4.04-1.76c1.91,0,3.2,0.73,3.89,2.19
	c0.45-0.65,1.04-1.18,1.77-1.59c0.73-0.4,1.58-0.6,2.57-0.6c2.99,0,4.51,1.58,4.56,4.75v9.13h-2.33v-8.99c0-0.97-0.22-1.7-0.67-2.18
	c-0.45-0.48-1.19-0.72-2.24-0.72c-0.86,0-1.58,0.26-2.15,0.77c-0.57,0.52-0.9,1.21-0.99,2.08v9.04h-2.34v-8.93
	c0-1.98-0.97-2.97-2.91-2.97c-1.53,0-2.57,0.65-3.13,1.95v9.95h-2.33V79.16H410.28z"/>
</svg>
